<svg id="Layer_1" data-name="Layer 1" xmlns="http://www.w3.org/2000/svg" viewBox="0 0 56 55.74"><defs><style>.cls-1{fill:#fff;}.cls-2{fill:#16ffaa;}</style></defs><rect width="56" height="55.74"/><path class="cls-1" d="M38.5,22.4h3.9a1.7,1.7,0,1,0,0-3.4H37V13.1a1.6,1.6,0,0,0-3.2,0V19H23.4V13.1a1.6,1.6,0,1,0-3.2,0V19H14.8a1.83,1.83,0,0,0-1.7,1.7,1.75,1.75,0,0,0,1.7,1.7h4.1l-4.8,4.8a1.7,1.7,0,0,0,2.4,2.4l3.7-3.7V44.8a1.6,1.6,0,0,0,3.2,0V25.7l3.9,3.9a1.63,1.63,0,0,0,1.4.5,1.63,1.63,0,0,0,1.4-.5l3.7-3.7V44.8a1.6,1.6,0,0,0,3.2,0V25.7l3.9,3.9a1.7,1.7,0,0,0,2.4-2.4Zm-9.7,0h3.7l-3.8,3.8-3.8-3.8h3.9Z" transform="translate(0 0)"/><polygon class="cls-2" points="29.13 48.5 33.93 45.8 33.93 40.6 29.13 43.4 29.13 48.5"/><path class="cls-2" d="M33.73,34.1l-4.6,2.6v5.6l4.8-2.7V35.4A5.07,5.07,0,0,0,33.73,34.1Z" transform="translate(0 0)"/><polygon class="cls-2" points="23.43 46 28.13 48.7 28.13 43.6 23.43 40.8 23.43 46"/><path class="cls-2" d="M23.43,35.3v4.4l4.7,2.7V36.8l-4.6-2.7A4.87,4.87,0,0,0,23.43,35.3Z" transform="translate(0 0)"/><path class="cls-2" d="M23.83,33.2l4.3,2.5V30.1A5.38,5.38,0,0,0,23.83,33.2Z" transform="translate(0 0)"/><path class="cls-2" d="M29.13,30.1v5.4l4.3-2.5A5,5,0,0,0,29.13,30.1Z" transform="translate(0 0)"/><polygon class="cls-2" points="23.43 55.74 28.13 55.74 28.13 49.9 23.43 47.1 23.43 55.74"/><polygon class="cls-2" points="29.13 55.74 33.93 55.74 33.93 46.9 29.13 49.7 29.13 55.74"/></svg>