<svg xmlns="http://www.w3.org/2000/svg" width="39" height="40" viewBox="0 0 39 40"><g transform="translate(-0.411)"><rect width="39" height="40" transform="translate(0.411)" fill="none"/><path d="M29.492,6.311H26.18V4.656A1.661,1.661,0,0,0,24.524,3H11.279A1.661,1.661,0,0,0,9.623,4.656V6.311H6.311A3.321,3.321,0,0,0,3,9.623v1.656a8.264,8.264,0,0,0,7.269,8.179,8.294,8.294,0,0,0,5.977,4.9v5.133H11.279a1.661,1.661,0,0,0-1.656,1.656h0A1.661,1.661,0,0,0,11.279,32.8H24.524a1.661,1.661,0,0,0,1.656-1.656h0a1.661,1.661,0,0,0-1.656-1.656H19.557V24.359a8.294,8.294,0,0,0,5.977-4.9A8.264,8.264,0,0,0,32.8,11.279V9.623A3.321,3.321,0,0,0,29.492,6.311ZM6.311,11.279V9.623H9.623v6.325A4.984,4.984,0,0,1,6.311,11.279Zm23.18,0a4.984,4.984,0,0,1-3.311,4.669V9.623h3.311Z" transform="translate(1.967 1.967)" fill="#fff" stroke="#707070" stroke-width="1"/></g></svg>