<svg xmlns="http://www.w3.org/2000/svg" width="40" height="40" viewBox="0 0 40 40"><g transform="translate(0.473)"><rect width="40" height="40" transform="translate(-0.473)" fill="none"/><path d="M15.458,19.8l1.788-1.358,1.772,1.341a.83.83,0,0,0,1.291-.911l-.7-2.252L21.6,15.047a.819.819,0,0,0-.53-1.457H18.752l-.712-2.219a.827.827,0,0,0-1.573,0l-.729,2.219H13.4a.828.828,0,0,0-.513,1.474l1.97,1.573-.7,2.252A.83.83,0,0,0,15.458,19.8ZM7.311,34.469A1.667,1.667,0,0,0,9.5,36.042l7.749-2.583,7.749,2.583a1.652,1.652,0,0,0,2.186-1.573V23.988a13.246,13.246,0,1,0-19.869,0ZM17.246,5.311a9.934,9.934,0,1,1-9.934,9.934A9.942,9.942,0,0,1,17.246,5.311Z" transform="translate(2.623 1.311)" fill="#fff" stroke="#707070" stroke-width="1"/></g></svg>