<svg xmlns="http://www.w3.org/2000/svg" width="40" height="40" viewBox="0 0 40 40"><path d="M0,0H40V40H0Z" fill="none"/><path d="M32.039,4H5.338A3.315,3.315,0,0,0,2.017,7.344L2,27.41a3.329,3.329,0,0,0,3.338,3.344h26.7a3.329,3.329,0,0,0,3.338-3.344V7.344A3.329,3.329,0,0,0,32.039,4ZM30.371,27.41H7.007a1.675,1.675,0,0,1-1.669-1.672V17.377h26.7v8.361A1.675,1.675,0,0,1,30.371,27.41Zm1.669-16.721H5.338V7.344h26.7Z" transform="translate(1.311 2.623)" fill="#fff" stroke="#707070" stroke-width="1"/></svg>