<svg xmlns="http://www.w3.org/2000/svg" width="40" height="40" viewBox="0 0 40 40"><path d="M0,0H40V40H0Z" fill="rgba(0,0,0,0)"/><path d="M4.583,18.834h9.5a1.588,1.588,0,0,0,1.583-1.583V4.583A1.588,1.588,0,0,0,14.084,3h-9.5A1.588,1.588,0,0,0,3,4.583V17.25A1.588,1.588,0,0,0,4.583,18.834Zm0,12.667h9.5a1.588,1.588,0,0,0,1.583-1.583V23.584A1.588,1.588,0,0,0,14.084,22h-9.5A1.588,1.588,0,0,0,3,23.584v6.334A1.588,1.588,0,0,0,4.583,31.5Zm15.834,0h9.5A1.588,1.588,0,0,0,31.5,29.917V17.25a1.588,1.588,0,0,0-1.583-1.583h-9.5a1.588,1.588,0,0,0-1.583,1.583V29.917A1.588,1.588,0,0,0,20.417,31.5ZM18.834,4.583v6.334A1.588,1.588,0,0,0,20.417,12.5h9.5A1.588,1.588,0,0,0,31.5,10.917V4.583A1.588,1.588,0,0,0,29.917,3h-9.5A1.588,1.588,0,0,0,18.834,4.583Z" transform="translate(2.75 2.75)" fill="#fff" stroke="#707070" stroke-width="1"/></svg>